<svg xmlns="http://www.w3.org/2000/svg" width="600" height="400" viewBox="0 0 600 400">
  <!-- 星空科技背景 -->
  <defs>
    <radialGradient id="star-bg" cx="30%" cy="40%" r="70%">
      <stop offset="0%" style="stop-color:#1a1a3e"/>
      <stop offset="100%" style="stop-color:#0a0a1a"/>
    </radialGradient>
  </defs>
  <rect width="600" height="400" fill="url(#star-bg)"/>
  
  <!-- 星星（小圆点） -->
  <circle cx="50" cy="30" r="1" fill="white" opacity="0.8"/>
  <circle cx="120" cy="60" r="1.5" fill="white" opacity="0.6"/>
  <circle cx="200" cy="20" r="1" fill="white" opacity="0.9"/>
  <circle cx="280" cy="80" r="1.2" fill="white" opacity="0.5"/>
  <circle cx="350" cy="25" r="1" fill="white" opacity="0.7"/>
  <circle cx="420" cy="55" r="1.5" fill="white" opacity="0.8"/>
  <circle cx="500" cy="30" r="1" fill="white" opacity="0.6"/>
  <circle cx="560" cy="70" r="1.2" fill="white" opacity="0.9"/>
  <circle cx="80" cy="130" r="1" fill="white" opacity="0.7"/>
  <circle cx="170" cy="110" r="1.5" fill="white" opacity="0.5"/>
  <circle cx="310" cy="140" r="1" fill="white" opacity="0.8"/>
  <circle cx="450" cy="115" r="1.2" fill="white" opacity="0.6"/>
  <circle cx="540" cy="150" r="1" fill="white" opacity="0.7"/>
  <circle cx="30" cy="220" r="1.5" fill="white" opacity="0.6"/>
  <circle cx="140" cy="190" r="1" fill="white" opacity="0.8"/>
  <circle cx="250" cy="230" r="1.2" fill="white" opacity="0.5"/>
  <circle cx="370" cy="200" r="1" fill="white" opacity="0.9"/>
  <circle cx="480" cy="220" r="1.5" fill="white" opacity="0.7"/>
  <circle cx="570" cy="240" r="1" fill="white" opacity="0.6"/>
  <circle cx="60" cy="310" r="1" fill="white" opacity="0.5"/>
  <circle cx="190" cy="290" r="1.2" fill="white" opacity="0.8"/>
  <circle cx="330" cy="320" r="1" fill="white" opacity="0.6"/>
  <circle cx="410" cy="300" r="1.5" fill="white" opacity="0.7"/>
  <circle cx="520" cy="330" r="1" fill="white" opacity="0.9"/>
  <circle cx="100" cy="370" r="1.2" fill="white" opacity="0.7"/>
  <circle cx="260" cy="360" r="1" fill="white" opacity="0.5"/>
  <circle cx="440" cy="370" r="1.5" fill="white" opacity="0.8"/>
  <circle cx="560" cy="380" r="1" fill="white" opacity="0.6"/>
  
  <!-- 科技连线网络 -->
  <g stroke="#4a6cf7" stroke-width="0.5" opacity="0.3">
    <line x1="120" y1="60" x2="200" y2="20"/>
    <line x1="200" y1="20" x2="280" y2="80"/>
    <line x1="280" y1="80" x2="350" y2="25"/>
    <line x1="350" y1="25" x2="420" y2="55"/>
    <line x1="170" y1="110" x2="280" y2="80"/>
    <line x1="310" y1="140" x2="420" y2="55"/>
    <line x1="310" y1="140" x2="370" y2="200"/>
    <line x1="370" y1="200" x2="480" y2="220"/>
    <line x1="250" y1="230" x2="370" y2="200"/>
    <line x1="140" y1="190" x2="250" y2="230"/>
    <line x1="190" y1="290" x2="250" y2="230"/>
    <line x1="330" y1="320" x2="370" y2="200"/>
    <line x1="410" y1="300" x2="480" y2="220"/>
  </g>
  
  <!-- 连线节点高亮 -->
  <circle cx="280" cy="80" r="2.5" fill="#4a6cf7" opacity="0.5"/>
  <circle cx="370" cy="200" r="3" fill="#4a6cf7" opacity="0.4"/>
  <circle cx="250" cy="230" r="2" fill="#4a6cf7" opacity="0.4"/>
  <circle cx="420" cy="55" r="2" fill="#4a6cf7" opacity="0.5"/>
</svg>
